<?xml version="1.0" standalone="no"?>
<!DOCTYPE svg PUBLIC "-//W3C//DTD SVG 20010904//EN"
 "http://www.w3.org/TR/2001/REC-SVG-20010904/DTD/svg10.dtd">
<svg version="1.0" xmlns="http://www.w3.org/2000/svg"
 width="1024.000000pt" height="1024.000000pt" viewBox="0 0 1024.000000 1024.000000"
 preserveAspectRatio="xMidYMid meet">

<g transform="translate(0.000000,1024.000000) scale(0.100000,-0.100000)"
fill="#000000" stroke="none">
<path d="M3515 7671 c-11 -5 -29 -19 -40 -31 -18 -20 -21 -40 -25 -184 l-5
-161 -172 -5 c-164 -5 -173 -6 -197 -29 l-26 -24 0 -1329 0 -1328 29 -32 29
-33 846 2 846 3 23 -28 c51 -63 116 -117 172 -143 50 -24 73 -29 136 -29 102
0 170 33 263 130 l68 70 806 -1 c444 0 820 0 835 0 17 1 40 12 58 30 l29 29 0
1327 0 1327 -29 29 c-33 32 -21 31 -248 29 l-133 -1 0 160 0 161 -29 32 -29
33 -194 -1 c-378 -1 -665 -58 -938 -185 -107 -50 -281 -166 -384 -255 l-79
-69 -56 53 c-31 29 -108 88 -171 130 -275 186 -551 280 -930 317 -157 16 -423
19 -455 6z m576 -224 c320 -55 645 -208 842 -397 l68 -65 -3 -1068 -3 -1067
-55 39 c-78 55 -249 144 -356 185 -118 44 -304 91 -442 110 -84 12 -361 27
-469 26 -10 0 -13 233 -13 1131 l0 1132 173 -6 c94 -3 211 -12 258 -20z m2489
-1107 l0 -1130 -92 0 c-150 0 -363 -19 -508 -46 -245 -45 -453 -128 -644 -256
l-101 -67 -3 1067 -3 1067 73 68 c251 232 570 374 938 416 41 5 135 9 208 10
l132 1 0 -1130z m410 -431 l0 -1179 -777 0 c-770 0 -778 1 -753 20 48 37 246
130 340 160 193 62 276 72 613 79 l309 6 29 33 29 32 0 1015 0 1014 98 3 c53
2 100 2 105 0 4 -2 7 -534 7 -1183z m-3540 166 l0 -1015 29 -32 29 -33 319 -6
c302 -5 324 -7 438 -33 192 -45 412 -135 505 -206 25 -19 17 -20 -747 -20
l-773 0 0 1180 0 1180 100 0 100 0 0 -1015z"/>
<path d="M1800 3201 l0 -511 198 0 c305 1 383 19 469 113 115 125 87 341 -53
410 -24 11 -44 24 -44 28 0 4 16 19 35 33 71 54 99 153 71 249 -21 72 -62 119
-134 154 -57 27 -58 28 -299 31 l-243 4 0 -511z m446 333 c84 -40 85 -163 1
-214 -27 -17 -51 -20 -144 -20 l-113 0 0 125 0 125 111 0 c82 0 120 -4 145
-16z m19 -400 c56 -26 78 -58 83 -118 3 -44 0 -62 -17 -89 -37 -60 -73 -70
-253 -68 l-88 1 0 145 0 145 121 0 c89 0 130 -4 154 -16z"/>
<path d="M4410 3200 l0 -510 90 0 90 0 0 111 0 110 41 49 41 49 86 -117 c47
-64 99 -136 116 -159 l30 -43 109 0 c84 0 106 3 101 13 -5 6 -72 98 -149 202
-78 105 -144 196 -149 203 -5 8 36 63 113 156 67 80 121 147 121 150 0 3 -47
6 -104 6 l-104 0 -48 -58 c-27 -32 -83 -98 -124 -146 l-75 -88 -3 291 -2 291
-90 0 -90 0 0 -510z"/>
<path d="M5345 3696 c-87 -27 -162 -99 -186 -177 -17 -56 -12 -144 10 -191 43
-91 95 -129 271 -193 69 -26 140 -56 157 -68 103 -69 61 -199 -70 -222 -70
-12 -231 39 -288 91 -15 13 -21 8 -58 -52 -50 -79 -48 -82 57 -137 196 -101
428 -77 533 56 46 57 59 100 59 188 0 50 -6 77 -26 117 -41 83 -114 130 -299
193 -153 52 -201 109 -160 189 45 87 196 84 367 -8 7 -3 78 113 78 127 0 15
-133 78 -188 90 -69 14 -207 13 -257 -3z"/>
<path d="M5977 3573 c-4 -3 -7 -41 -7 -84 l0 -77 -57 1 -58 2 -3 -72 -3 -73
63 0 63 0 -3 -144 c-7 -280 20 -376 116 -419 59 -26 178 -28 235 -4 37 16 37
17 32 59 -13 93 -8 88 -78 81 -57 -5 -66 -3 -92 20 l-30 25 -3 191 -3 191 95
0 96 0 0 75 0 75 -95 0 -95 0 0 80 0 80 -83 0 c-46 0 -87 -3 -90 -7z"/>
<path d="M2925 3426 c-110 -27 -209 -106 -253 -200 -111 -236 23 -491 282
-537 168 -29 339 58 414 211 24 49 27 66 27 155 0 88 -3 107 -27 157 -79 169
-264 258 -443 214z m186 -169 c54 -28 105 -101 115 -162 19 -132 -77 -254
-202 -255 -124 0 -213 93 -214 225 0 162 161 265 301 192z"/>
<path d="M3794 3430 c-105 -21 -209 -103 -257 -201 -117 -237 18 -494 282
-540 162 -29 335 60 408 209 25 52 28 67 28 162 -1 125 -18 172 -92 251 -60
64 -111 94 -193 113 -71 17 -112 18 -176 6z m174 -169 c77 -40 116 -107 117
-201 0 -126 -68 -209 -181 -218 -176 -15 -289 164 -208 327 37 74 96 111 176
111 38 0 72 -7 96 -19z"/>
<path d="M6690 3427 c-190 -44 -316 -218 -296 -411 26 -247 288 -396 534 -304
71 26 163 113 199 186 25 51 28 68 28 157 0 93 -2 105 -33 167 -79 160 -257
245 -432 205z m177 -166 c78 -36 131 -140 118 -230 -18 -119 -99 -191 -213
-191 -72 0 -129 34 -170 101 -31 51 -33 59 -30 131 3 66 7 82 33 120 60 84
166 112 262 69z"/>
<path d="M8033 3425 c-77 -21 -127 -49 -173 -98 -139 -144 -144 -390 -9 -528
107 -109 273 -144 424 -88 47 18 126 78 125 96 -1 4 -18 27 -39 50 l-39 43
-44 -25 c-96 -54 -208 -50 -274 8 -33 28 -74 93 -74 117 0 7 87 10 261 10
l262 0 -5 84 c-7 100 -36 173 -97 239 -76 82 -212 121 -318 92z m140 -149 c44
-19 85 -65 93 -104 l7 -32 -167 0 c-187 0 -189 1 -140 71 47 68 136 96 207 65z"/>
<path d="M7565 3416 c-34 -15 -72 -49 -97 -86 -17 -25 -17 -25 -17 33 l-1 57
-90 0 -90 0 0 -365 0 -365 90 0 90 0 0 194 c0 213 8 257 58 309 39 41 60 51
122 57 l55 5 3 88 3 87 -48 0 c-26 -1 -61 -7 -78 -14z"/>
</g>
</svg>
